HIERARCHY
ROOT Hips
{
  OFFSET -35.4901 99.2528 17.4586
  CHANNELS 6 Xposition Yposition Zposition Zrotation Xrotation Yrotation
  JOINT LeftUpLeg
  {
    OFFSET 8.64259 1.95398 -2.38835
    CHANNELS 3 Zrotation Xrotation Yrotation
    JOINT LeftLeg
    {
      OFFSET 43.7702 0 0
      CHANNELS 3 Zrotation Xrotation Yrotation
      JOINT LeftFoot
      {
        OFFSET 40.6238 0 0
        CHANNELS 3 Zrotation Xrotation Yrotation
        JOINT LeftToeBase
        {
          OFFSET 12.7242 0 0
          CHANNELS 3 Zrotation Xrotation Yrotation
          End Site
          {
            OFFSET 0 0 0
          }
        }
      }
    }
  }
  JOINT RightUpLeg
  {
    OFFSET -8.2249 1.95398 -2.59336
    CHANNELS 3 Zrotation Xrotation Yrotation
    JOINT RightLeg
    {
      OFFSET 43.5653 0 0
      CHANNELS 3 Zrotation Xrotation Yrotation
      JOINT RightFoot
      {
        OFFSET 40.6238 0 0
        CHANNELS 3 Zrotation Xrotation Yrotation
        JOINT RightToeBase
        {
          OFFSET 12.7242 0 0
          CHANNELS 3 Zrotation Xrotation Yrotation
          End Site
          {
            OFFSET 0 0 0
          }
        }
      }
    }
  }
  JOINT Spine
  {
    OFFSET 0.165834 0.87714 6.61349
    CHANNELS 3 Zrotation Xrotation Yrotation
    JOINT Spine1
    {
      OFFSET 7.38963 1.71661e-005 0
      CHANNELS 3 Zrotation Xrotation Yrotation
      JOINT Spine2
      {
        OFFSET 11.9445 1.14441e-005 0
        CHANNELS 3 Zrotation Xrotation Yrotation
        JOINT Spine3
        {
          OFFSET 14.7254 4.19617e-005 0
          CHANNELS 3 Zrotation Xrotation Yrotation
          JOINT Spine4
          {
            OFFSET 10.9679 0 0
            CHANNELS 3 Zrotation Xrotation Yrotation
            JOINT RightShoulder
            {
              OFFSET 2.46616 -1.6653 3.69651
              CHANNELS 3 Zrotation Xrotation Yrotation
              JOINT RightArm
              {
                OFFSET 13.0012 0 0
                CHANNELS 3 Zrotation Xrotation Yrotation
                JOINT RightForeArm
                {
                  OFFSET 28.7848 1.52588e-005 0
                  CHANNELS 3 Zrotation Xrotation Yrotation
                  JOINT RightHand
                  {
                    OFFSET 26.5688 1.52588e-005 0
                    CHANNELS 3 Zrotation Xrotation Yrotation
                    End Site
                    {
                      OFFSET 0 0 0
                    }
                  }
                }
              }
            }
            JOINT LeftShoulder
            {
              OFFSET 2.38034 -1.29275 -3.7523
              CHANNELS 3 Zrotation Xrotation Yrotation
              JOINT LeftArm
              {
                OFFSET 16.3182 6.10351e-005 0
                CHANNELS 3 Zrotation Xrotation Yrotation
                JOINT LeftForeArm
                {
                  OFFSET 27.0901 0 0
                  CHANNELS 3 Zrotation Xrotation Yrotation
                  JOINT LeftHand
                  {
                    OFFSET 24.5451 1.52588e-005 0
                    CHANNELS 3 Zrotation Xrotation Yrotation
                    End Site
                    {
                      OFFSET 0 0 0
                    }
                  }
                }
              }
            }
            JOINT Neck
            {
              OFFSET 5.0226 -0.0266342 0
              CHANNELS 3 Zrotation Xrotation Yrotation
              JOINT Head
              {
                OFFSET 6.69364 2.86102e-005 0
                CHANNELS 3 Zrotation Xrotation Yrotation
                End Site
                {
                  OFFSET 0 0 0
                }
              }
            }
          }
        }
      }
    }
  }
}
MOTION
Frames:	10
Frame Time:	0.0416667
-30.2123 98.732 -34.3915 84.0296 -43.1526 87.1703 -171.733 -32.8796 91.4961 -25.5561 -4.64185 -2.39433 52.457 -2.17879 0.269747 28.1458 2.53207 -4.16401 -177.945 45.0053 96.643 -32.1788 -12.513 -1.79952 75.0282 -8.48001 -2.62951 17.2869 -0.392307 2.143 -3.55379 7.85288 -91.7427 11.0848 -7.88199 -2.70719 -0.564202 -7.99342 -2.35576 -23.2253 -6.70356 -4.95814 -3.21266 -6.70355 -4.95813 96.8364 -7.93668 -99.0134 68.948 -20.2344 66.9072 -42.836 -2.79114 -67.0411 -39.7241 4.4126 -21.2234 -82.129 0.619685 80.9282 5.6269 4.50603 -33.535 27.4109 -16.9435 -102.599 3.30004 -1.12725 -25.0687 37.8966 18.0307 -5.87965 -22.3999 17.7128 12.27 
-23.7545 98.5262 -29.1345 84.9976 -44.6948 85.9536 -171.579 -32.2656 88.8289 -35.6718 -2.65841 -4.45734 54.1209 -1.77021 0.923904 30.6952 3.06093 -5.54521 -179.371 39.2753 96.0834 -20.3665 -14.8677 -1.06582 72.0356 -7.18415 -2.17345 17.4791 -0.460289 2.2681 -3.43373 7.85397 -91.6304 11.0926 -7.59099 -2.51102 -0.557907 -7.69408 -2.17277 -23.2124 -6.4849 -4.68307 -3.19975 -6.48492 -4.68308 97.5011 -11.7511 -95.6077 64.6843 -25.7144 64.3494 -47.1962 -4.68909 -68.4714 -33.1982 3.86277 -23.5845 -82.6959 -2.56073 80.453 6.32744 8.75136 -31.6159 27.0499 -17.3464 -101.675 2.79057 -1.01042 -24.5462 36.7888 18.8761 -3.63351 -22.2226 17.5476 11.9613 
-17.5439 98.1983 -23.8528 85.9289 -45.8923 85.4031 -169.392 -29.9819 88.5328 -47.4152 3.44805 -5.71045 54.9132 -1.79103 2.85667 33.0366 2.9785 -5.91195 179.736 34.6733 95.8149 -13.4017 -12.9987 -0.657923 68.8511 -6.02051 -1.61811 18.7875 -0.406856 2.05689 -3.27759 7.8601 -91.5837 11.0847 -7.25856 -2.45064 -0.56766 -7.35931 -2.12732 -23.2106 -6.18609 -4.5246 -3.19796 -6.18609 -4.5246 96.7713 -14.7704 -96.6639 60.118 -25.6514 60.0923 -48.2655 -5.14891 -70.3931 -32.3458 3.48925 -23.043 -83.3852 -6.65405 80.0994 6.29505 14.1355 -29.6668 25.8787 -18.3343 -101.883 2.75399 -0.955612 -23.5981 35.732 19.3477 -1.7073 -22.3399 17.1075 12.0953 
-11.5612 97.4725 -18.5619 86.6577 -47.6726 85.3353 -165.592 -26.5326 89.7361 -60.5094 8.41858 -6.12137 55.7069 -1.56871 3.97716 32.7352 3.57881 -6.92642 179.255 32.5373 96.1263 -13.8441 -10.6324 -0.606361 69.8603 -6.43375 -1.23174 17.3744 0.497999 0.318092 -3.0517 7.89666 -91.634 11.0086 -6.83181 -2.59843 -0.6463 -6.93946 -2.29405 -23.2697 -5.73497 -4.53566 -3.25704 -5.73496 -4.53565 95.5617 -18.293 -98.7035 52.9227 -24.4628 53.6601 -49.3289 -6.52667 -72.791 -31.9149 3.14906 -22.3784 -84.2153 -13.4426 80.2198 6.4569 18.4402 -26.838 27.4435 -19.7529 -101.667 4.94428 -1.25258 -22.3981 33.449 20.6356 3.02111 -19.7178 17.0013 9.67813 
-5.79781 96.4653 -13.2585 86.5101 -49.6113 84.7784 -160.881 -21.5047 91.419 -74.7216 10.9416 -5.12233 57.2506 -0.919837 5.14788 29.0593 4.51459 -7.67439 178.767 31.9525 96.5616 -18.1408 -11.2456 -0.536424 70.6363 -6.44448 -1.77183 15.8956 1.54215 -1.58093 -2.72757 7.86344 -91.7185 11.0721 -6.22612 -2.81968 -0.5864 -6.34415 -2.54213 -23.1836 -5.09122 -4.56272 -3.17097 -5.09121 -4.56273 93.5983 -23.1352 -101.687 44.3598 -23.0533 47.2448 -49.7283 -6.68566 -76.0365 -35.8143 3.18877 -20.5754 -85.1111 -21.2338 80.5594 6.54796 23.3636 -23.9661 30.3085 -21.2481 -100.304 4.53818 -1.22988 -23.0728 30.4651 21.3483 7.58184 -16.284 16.5673 7.65478 
-0.0599155 95.1828 -7.94836 87.4066 -51.5792 85.7612 -155.421 -16.2765 94.0266 -89.0118 9.08741 -2.65805 58.6828 -0.191527 5.31037 29.3399 5.22119 -8.93983 178.116 29.1005 97.2921 -20.5937 -14.2631 -0.203413 69.742 -5.72219 -2.26614 17.7297 0.040463 1.22104 -2.33228 7.97613 -91.7888 10.8458 -5.46981 -3.04699 -0.816608 -5.59853 -2.80286 -23.3857 -4.30191 -4.55053 -3.37309 -4.30189 -4.55053 91.2491 -27.255 -105.273 35.7085 -19.656 39.3 -48.1572 -4.06149 -79.5042 -36.4579 3.25402 -20.2133 -85.8073 -28.1542 80.9224 4.56574 26.8354 -19.5907 28.5125 -20.9581 -99.7161 5.64076 -1.22375 -20.3862 30.0849 21.1414 9.15431 -15.3557 15.8929 7.17295 
5.56868 94.0243 -2.5354 88.4238 -52.8144 87.6874 -150.555 -9.2351 96.7065 -102.598 4.46783 1.10806 60.5951 0.94031 3.89079 28.5277 5.01578 -8.38434 177.369 26.1834 98.2111 -23.1495 -16.1643 0.272711 63.5741 -2.33348 -0.428709 25.13 -0.881223 2.62856 -1.98242 8.05328 -91.8674 10.6918 -4.80784 -3.27305 -0.973835 -4.94715 -3.0581 -23.5206 -3.60287 -4.56618 -3.50797 -3.60286 -4.56617 89.1144 -30.8535 -108.162 27.7276 -16.4467 29.8387 -45.7955 -0.964329 -84.5122 -36.2537 3.03812 -19.1023 -86.2377 -34.3916 81.5643 0.93129 31.0328 -12.4146 29.2657 -21.2921 -98.4021 4.73803 -1.00413 -19.11 29.3502 20.5701 9.5031 -14.4358 15.3312 7.12501 
10.8991 92.9452 2.941 89.3584 -54.1291 89.6218 -146.829 -0.0719665 97.9056 -114.826 3.06172 4.91575 61.1165 1.52522 5.29817 27.6915 6.33162 -10.3039 175.987 27.487 99.9703 -35.7589 -20.1424 1.29695 71.3922 -5.86191 -4.47163 -0.793625 0.281832 2.33378 -1.49967 8.11709 -91.9537 10.5685 -3.88454 -3.53442 -1.10101 -4.03625 -3.36008 -23.6225 -2.64391 -4.53728 -3.60984 -2.64392 -4.53728 88.9555 -30.7473 -108.52 23.9969 -11.5232 17.6786 -46.4156 -0.012821 -91.3267 -35.7471 2.27906 -16.8521 -85.69 -38.4901 83.3409 -5.74466 34.0642 -4.67492 30.9281 -21.1966 -96.392 2.90493 -0.846926 -20.647 27.9377 19.7161 11.1912 -12.8824 14.2547 5.46943 
15.6125 91.6803 7.91849 88.0604 -55.8033 88.9489 -144.169 11.393 95.4162 -126.46 4.06678 8.04944 61.2889 1.09008 7.28462 25.6162 6.45413 -9.92106 178.087 28.1229 101.836 -45.4941 -17.8344 -0.338786 77.8007 -9.90682 -8.15211 8.93504 -0.532913 2.92866 -0.900993 7.99262 -91.9617 10.8319 -2.69978 -3.64992 -0.841062 -2.85768 -3.52771 -23.3436 -1.47918 -4.29149 -3.33098 -1.47918 -4.2915 91.0493 -30.0659 -104.65 23.1752 -8.50744 2.20769 -46.446 1.70573 -94.7636 -36.0051 1.71615 -14.8235 -84.1859 -42.2744 86.4945 -13.3018 36.11 5.20678 34.4814 -21.6194 -94.3492 3.10367 -0.882124 -20.8089 26.3291 18.4316 12.9224 -11.0765 12.7131 4.50228 
19.8468 90.6159 12.6116 86.3032 -58.1879 89.4636 -142.555 25.6501 92.1561 -136.206 7.39507 10.114 60.4639 0.0366593 10.0124 24.3321 8.30886 -12.3957 -179.995 26.2236 104.688 -49.279 -16.0089 -1.02823 84.6196 -14.2334 -9.57772 4.60055 -0.115886 2.46789 -0.208999 7.96631 -92.0868 10.8988 -1.38077 -4.02075 -0.777485 -1.55626 -3.95623 -23.2628 -0.109775 -4.24945 -3.25016 -0.109766 -4.24945 91.7014 -30.6663 -103.15 21.8673 -2.78208 -13.1725 -46.3525 2.83488 -97.0367 -34.9881 1.53435 -14.6251 -82.6359 -44.0207 89.2435 -23.7241 33.4027 18.4748 36.3352 -22.1456 -94.9068 2.65949 -0.834522 -21.1605 27.9988 17.3295 13.4351 -11.7032 11.1993 4.2946 
